<svg xmlns="http://www.w3.org/2000/svg" width="900" height="250" xml:space="preserve">
  <path style="stroke:#000;stroke-width:2;stroke-dasharray:none;stroke-linecap:round;stroke-dashoffset:0;stroke-linejoin:round;stroke-miterlimit:10;is-custom-font:none;font-file-url:none;fill:none;fill-rule:nonzero;opacity:1" transform="translate(428.672 30.885) scale(5.875)" d="M3 6v15c0 1.1.9 2 2 2h22c1.1 0 2-.9 2-2V6c0-1.1-.9-2-2-2H5c-1.1 0-2 .9-2 2z" stroke-linecap="round"/>
  <path style="stroke:#000;stroke-width:2;stroke-dasharray:none;stroke-linecap:round;stroke-dashoffset:0;stroke-linejoin:round;stroke-miterlimit:10;is-custom-font:none;font-file-url:none;fill:none;fill-rule:nonzero;opacity:1" transform="translate(522.672 201.26) scale(5.875)" d="M-7 0H7"/>
  <path style="stroke:#000;stroke-width:2;stroke-dasharray:none;stroke-linecap:round;stroke-dashoffset:0;stroke-linejoin:round;stroke-miterlimit:10;is-custom-font:none;font-file-url:none;fill:none;fill-rule:nonzero;opacity:1" transform="translate(428.672 30.885) scale(5.875)" d="M13 23c0 2.1-.7 4.6-1.8 6m9.6 0c-1.1-1.4-1.8-3.9-1.8-6" stroke-linecap="round"/>
  <path style="stroke:#000;stroke-width:2;stroke-dasharray:none;stroke-linecap:round;stroke-dashoffset:0;stroke-linejoin:round;stroke-miterlimit:10;is-custom-font:none;font-file-url:none;fill:none;fill-rule:nonzero;opacity:1" transform="translate(522.672 86.698) scale(5.875)" d="M0-2.5-7 0v2.5H7V0z"/>
  <path style="stroke:#000;stroke-width:2;stroke-dasharray:none;stroke-linecap:round;stroke-dashoffset:0;stroke-linejoin:round;stroke-miterlimit:10;is-custom-font:none;font-file-url:none;fill:none;fill-rule:nonzero;opacity:1" transform="translate(522.672 121.948) scale(5.875)" d="M0-3.5v7"/>
  <path style="stroke:#000;stroke-width:2;stroke-dasharray:none;stroke-linecap:round;stroke-dashoffset:0;stroke-linejoin:round;stroke-miterlimit:10;is-custom-font:none;font-file-url:none;fill:none;fill-rule:nonzero;opacity:1" transform="translate(505.047 121.948) scale(5.875)" d="M0-3.5v7"/>
  <path style="stroke:#000;stroke-width:2;stroke-dasharray:none;stroke-linecap:round;stroke-dashoffset:0;stroke-linejoin:round;stroke-miterlimit:10;is-custom-font:none;font-file-url:none;fill:none;fill-rule:nonzero;opacity:1" transform="translate(487.422 121.948) scale(5.875)" d="M0-3.5v7"/>
  <path style="stroke:#000;stroke-width:2;stroke-dasharray:none;stroke-linecap:round;stroke-dashoffset:0;stroke-linejoin:round;stroke-miterlimit:10;is-custom-font:none;font-file-url:none;fill:none;fill-rule:nonzero;opacity:1" transform="translate(540.297 121.948) scale(5.875)" d="M0-3.5v7"/>
  <path style="stroke:#000;stroke-width:2;stroke-dasharray:none;stroke-linecap:round;stroke-dashoffset:0;stroke-linejoin:round;stroke-miterlimit:10;is-custom-font:none;font-file-url:none;fill:none;fill-rule:nonzero;opacity:1" transform="translate(557.922 121.948) scale(5.875)" d="M0-3.5v7"/>
  <path style="stroke:#000;stroke-width:2;stroke-dasharray:none;stroke-linecap:round;stroke-dashoffset:0;stroke-linejoin:round;stroke-miterlimit:10;is-custom-font:none;font-file-url:none;fill:none;fill-rule:nonzero;opacity:1" transform="translate(522.672 142.51) scale(5.875)" d="M-7 0H7"/>
  <path style="stroke:none;stroke-width:1;stroke-dasharray:none;stroke-linecap:butt;stroke-dashoffset:0;stroke-linejoin:miter;stroke-miterlimit:4;is-custom-font:none;font-file-url:none;fill:#000;fill-rule:nonzero;opacity:1" transform="translate(30.885 30.885) scale(.3672)" d="M452 96H60c-15.5 0-27.9 12.5-28 28v264c.2 15.5 12.5 28 28 28h392c15.6 0 28-12.7 28-28.3V124.3c0-15.6-12.4-28.3-28-28.3zM77.1 128h357.7c6.9 0 12.1 5.1 13.1 12v20H64v-20.3c1-6.8 6.3-11.7 13.1-11.7zm357.8 256H77.1c-6.9 0-12.1-4.9-13.1-11.7V256h384v116c-1 6.9-6.3 12-13.1 12z"/>
  <rect style="stroke:none;stroke-width:1;stroke-dasharray:none;stroke-linecap:butt;stroke-dashoffset:0;stroke-linejoin:miter;stroke-miterlimit:4;is-custom-font:none;font-file-url:none;fill:#000;fill-rule:nonzero;opacity:1" x="-96" y="-8" rx="0" ry="0" width="192" height="16" transform="translate(101.387 145.451) scale(.3672)"/>
  <rect style="stroke:none;stroke-width:1;stroke-dasharray:none;stroke-linecap:butt;stroke-dashoffset:0;stroke-linejoin:miter;stroke-miterlimit:4;is-custom-font:none;font-file-url:none;fill:#000;fill-rule:nonzero;opacity:1" x="-48" y="-8" rx="0" ry="0" width="96" height="16" transform="translate(83.762 157.202) scale(.3672)"/>
  <rect style="stroke:none;stroke-width:1;stroke-dasharray:none;stroke-linecap:butt;stroke-dashoffset:0;stroke-linejoin:miter;stroke-miterlimit:4;is-custom-font:none;font-file-url:none;fill:#000;fill-rule:nonzero;opacity:1" x="-32" y="-24" rx="0" ry="0" width="64" height="48" transform="translate(171.89 151.326) scale(.3672)"/>
  <path style="stroke:none;stroke-width:1;stroke-dasharray:none;stroke-linecap:butt;stroke-dashoffset:0;stroke-linejoin:miter;stroke-miterlimit:4;is-custom-font:none;font-file-url:none;fill:#000;fill-rule:nonzero;opacity:1" transform="translate(664.328 30.885) scale(5.875)" d="M16 13c-1.654 0-3 1.346-3 3s1.346 3 3 3 3-1.346 3-3-1.346-3-3-3zM6 13c-1.654 0-3 1.346-3 3s1.346 3 3 3 3-1.346 3-3-1.346-3-3-3zm20 0c-1.654 0-3 1.346-3 3s1.346 3 3 3 3-1.346 3-3-1.346-3-3-3z"/>
  <path style="stroke:none;stroke-width:1;stroke-dasharray:none;stroke-linecap:butt;stroke-dashoffset:0;stroke-linejoin:miter;stroke-miterlimit:4;is-custom-font:none;font-file-url:none;fill:#000;fill-rule:nonzero;opacity:1" vector-effect="non-scaling-stroke" transform="translate(225.65 26.912) scale(.7233)" d="M175.79 16.42H90.16a7.93 7.93 0 0 0-7.93 7.93c0 4.39 3.55 7.95 7.93 7.95h85.63c10.91 0 19.77 8.86 19.77 19.76v166.8c0 10.9-8.86 19.76-19.77 19.76H95.14c-10.9 0-19.78-8.86-19.78-19.76V50.73c0-4.38-3.54-7.94-7.93-7.94s-7.93 3.56-7.93 7.94v168.13c0 19.65 15.98 35.64 35.64 35.64h80.65c19.66 0 35.64-15.99 35.64-35.64V52.06c0-19.65-15.98-35.64-35.64-35.64zm-40.33 101.6c4.82 0 8.72 3.92 8.72 8.72 0 4.4 3.56 7.94 7.93 7.94 4.39 0 7.94-3.54 7.94-7.94 0-10.77-7-19.84-16.66-23.16v-4.5c0-4.39-3.55-7.93-7.93-7.93s-7.93 3.54-7.93 7.93v4.5c-9.66 3.32-16.64 12.39-16.64 23.16 0 13.56 11 24.59 24.57 24.59 4.82 0 8.72 3.92 8.72 8.72 0 4.8-3.9 8.72-8.72 8.72-4.8 0-8.7-3.92-8.7-8.72 0-4.38-3.58-7.93-7.94-7.93a7.93 7.93 0 0 0-7.93 7.93c0 10.77 6.98 19.84 16.64 23.16v4.49c0 4.4 3.55 7.95 7.93 7.95s7.93-3.55 7.93-7.95v-4.49c9.66-3.32 16.66-12.39 16.66-23.16 0-13.56-11.02-24.59-24.59-24.59-4.8 0-8.7-3.91-8.7-8.72 0-4.8 3.9-8.72 8.7-8.72zm47.62-61.91a7.94 7.94 0 0 0-7.94-7.94H95.79a7.94 7.94 0 0 0-7.94 7.94c0 4.39 3.56 7.92 7.94 7.92h79.35c4.38 0 7.94-3.53 7.94-7.92z"/>
</svg>
